<?xml version="1.0" encoding="UTF-8"?>
<svg id="_レイヤー_2" data-name="レイヤー_2" xmlns="http://www.w3.org/2000/svg" viewBox="0 0 250 250">
  <defs>
    <style>
      .cls-1, .cls-2, .cls-3, .cls-4 {
        fill: none;
      }

      .cls-5 {
        fill: #e07494;
      }

      .cls-2 {
        stroke-width: 4px;
      }

      .cls-2, .cls-4 {
        stroke: #fff;
      }

      .cls-3 {
        stroke: #e07494;
        stroke-width: 18px;
      }

      .cls-6 {
        fill: #fff;
      }

      .cls-4 {
        stroke-miterlimit: 4;
        stroke-width: 4px;
      }
    </style>
  </defs>
  <g id="_背景" data-name="背景">
    <g>
      <g id="_楕円形_70-2" data-name="楕円形_70-2">
        <circle class="cls-6" cx="125" cy="125" r="125"/>
        <circle class="cls-3" cx="125" cy="125" r="116"/>
      </g>
      <g id="_合体_5" data-name="合体_5">
        <path class="cls-5" d="M135.47,209.5c-4.42,0-8.01-3.59-8.01-8.01v-61.3h-4.93v61.3c0,4.42-3.59,8.01-8.01,8.01s-8.01-3.59-8.01-8.01v-109.68h-3.62v35.35c0,3.58-2.92,6.5-6.5,6.5h-.4c-3.58,0-6.5-2.92-6.5-6.5v-43.77c0-3.07,1.2-5.96,3.37-8.13,2.17-2.17,5.06-3.37,8.13-3.37h48c3.07,0,5.96,1.2,8.13,3.37,2.17,2.17,3.37,5.06,3.37,8.13v43.77c0,3.58-2.92,6.5-6.5,6.5h-.4c-3.58,0-6.5-2.92-6.5-6.5v-35.35h-3.62v109.68c0,4.42-3.59,8.01-8.01,8.01ZM125.66,68.27c-3.71,0-7.2-1.44-9.83-4.07-2.63-2.62-4.07-6.11-4.07-9.82s1.45-7.19,4.07-9.82c2.62-2.62,6.12-4.07,9.83-4.07s7.2,1.44,9.83,4.07c2.63,2.62,4.07,6.11,4.07,9.82s-1.45,7.2-4.07,9.82c-2.63,2.62-6.12,4.07-9.83,4.07Z"/>
        <path class="cls-5" d="M135.47,209c4.14,0,7.51-3.37,7.51-7.51v-110.18h4.62v35.85c0,3.31,2.69,6,6,6h.4c3.31,0,6-2.69,6-6v-43.77c0-6.07-4.93-11-11-11h-48c-2.94,0-5.7,1.14-7.78,3.22-2.08,2.08-3.22,4.84-3.22,7.78v43.77c0,3.31,2.69,6,6,6h.4c3.31,0,6-2.69,6-6v-35.85h4.62v110.18c0,4.14,3.37,7.51,7.51,7.51s7.51-3.37,7.51-7.51v-61.8h5.93v61.8c0,4.14,3.37,7.51,7.51,7.51M125.66,67.77c3.58,0,6.94-1.39,9.48-3.92,2.53-2.53,3.92-5.89,3.92-9.46s-1.39-6.94-3.92-9.46c-2.53-2.53-5.9-3.92-9.48-3.92s-6.94,1.39-9.48,3.92c-2.53,2.53-3.92,5.89-3.92,9.46s1.39,6.94,3.92,9.46c2.53,2.53,5.9,3.92,9.48,3.92M135.47,210c-4.7,0-8.51-3.81-8.51-8.51v-60.8h-3.93v60.8c0,4.7-3.81,8.51-8.51,8.51s-8.51-3.81-8.51-8.51v-109.18h-2.62v34.85c0,3.87-3.13,7-7,7h-.4c-3.87,0-7-3.13-7-7v-43.77c0-6.63,5.37-12,12-12h48c6.63,0,12,5.37,12,12v43.77c0,3.87-3.13,7-7,7h-.4c-3.87,0-7-3.13-7-7v-34.85h-2.62v109.18c0,4.7-3.81,8.51-8.51,8.51ZM125.66,68.77c-7.95,0-14.4-6.44-14.4-14.39s6.45-14.38,14.4-14.38,14.4,6.44,14.4,14.38-6.45,14.39-14.4,14.39Z"/>
      </g>
      <g id="_トラバー" data-name="トラバー">
        <g id="_長方形_206" data-name="長方形_206">
          <rect class="cls-5" x="5" y="136.33" width="240" height="18"/>
          <rect class="cls-2" x="7" y="138.33" width="236" height="14"/>
        </g>
        <g id="_グループ_189" data-name="グループ_189">
          <g id="_パス_227" data-name="パス_227">
            <path class="cls-6" d="M40.12,149.33h-22.17l-8-8h22.17l8,8Z"/>
            <path class="cls-5" d="M12.37,142.33l6,6h19.34l-6-6H12.37M7.54,140.33h25l10,10h-25l-10-10Z"/>
          </g>
          <g id="_パス_228" data-name="パス_228">
            <path class="cls-6" d="M80.12,149.33h-22.17l-8-8h22.17l8,8Z"/>
            <path class="cls-5" d="M52.37,142.33l6,6h19.34l-6-6h-19.34M47.54,140.33h25l10,10h-25l-10-10Z"/>
          </g>
          <g id="_パス_229" data-name="パス_229">
            <path class="cls-6" d="M120.12,149.33h-22.17l-8-8h22.17l8,8Z"/>
            <path class="cls-5" d="M92.37,142.33l6,6h19.34l-6-6h-19.34M87.54,140.33h25l10,10h-25l-10-10Z"/>
          </g>
          <g id="_パス_230" data-name="パス_230">
            <path class="cls-6" d="M160.12,149.33h-22.17l-8-8h22.17l8,8Z"/>
            <path class="cls-5" d="M132.37,142.33l6,6h19.34l-6-6h-19.34M127.54,140.33h25l10,10h-25l-10-10Z"/>
          </g>
          <g id="_パス_231" data-name="パス_231">
            <path class="cls-6" d="M200.12,149.33h-22.17l-8-8h22.17l8,8Z"/>
            <path class="cls-5" d="M172.37,142.33l6,6h19.34l-6-6h-19.34M167.54,140.33h25l10,10h-25l-10-10Z"/>
          </g>
          <g id="_パス_232" data-name="パス_232">
            <path class="cls-6" d="M240.12,149.33h-22.17l-8-8h22.17l8,8Z"/>
            <path class="cls-5" d="M212.37,142.33l6,6h19.34l-6-6h-19.34M207.54,140.33h25l10,10h-25l-10-10Z"/>
          </g>
        </g>
      </g>
      <g id="_長方形_197" data-name="長方形_197">
        <rect class="cls-5" x="108.96" y="6.83" width="25" height="240" transform="translate(-54.11 123.03) rotate(-45)"/>
        <rect class="cls-4" x="110.96" y="8.83" width="21" height="236" transform="translate(-54.11 123.03) rotate(-45)"/>
      </g>
      <g id="_楕円形_35" data-name="楕円形_35">
        <circle class="cls-1" cx="125" cy="125" r="125"/>
        <circle class="cls-3" cx="125" cy="125" r="116"/>
      </g>
    </g>
  </g>
</svg>