<?xml version="1.0" encoding="UTF-8"?>
<svg id="_レイヤー_2" data-name="レイヤー_2" xmlns="http://www.w3.org/2000/svg" viewBox="0 0 250 250">
  <defs>
    <style>
      .cls-1, .cls-2, .cls-3, .cls-4, .cls-5 {
        fill: none;
      }

      .cls-2 {
        stroke-miterlimit: 4;
        stroke-width: 5px;
      }

      .cls-2, .cls-3, .cls-4, .cls-6 {
        stroke: #e07494;
      }

      .cls-3 {
        stroke-width: 4px;
      }

      .cls-3, .cls-6 {
        stroke-miterlimit: 4;
      }

      .cls-7, .cls-6 {
        fill: #e07494;
      }

      .cls-4 {
        stroke-width: 18px;
      }

      .cls-8 {
        fill: #fff;
      }

      .cls-5 {
        stroke: #fff;
        stroke-miterlimit: 4;
        stroke-width: 4px;
      }

      .cls-6 {
        stroke-width: 2px;
      }
    </style>
  </defs>
  <g id="_背景" data-name="背景">
    <g>
      <g id="_楕円形_68-2" data-name="楕円形_68-2">
        <circle class="cls-8" cx="125" cy="125" r="125"/>
        <circle class="cls-4" cx="125" cy="125" r="116"/>
      </g>
      <g id="_ビール" data-name="ビール">
        <path id="_前面オブジェクトで型抜き_1" data-name="前面オブジェクトで型抜き_1" class="cls-6" d="M52.9,129.93l18.52,3.6-.97,5.01-13.64-2.65c-2.44-.47-4.8,1.12-5.28,3.56l-4.48,23.03c-.47,2.44,1.12,4.8,3.56,5.28l13.64,2.65-.97,5.01-18.52-3.6c-2.54-.47-4.21-2.91-3.74-5.45l6.37-32.77c.52-2.53,2.98-4.16,5.51-3.65Z"/>
        <g id="_パス_225" data-name="パス_225">
          <path class="cls-8" d="M80.41,205.29c-10.6-2.06-20.9-7.61-24.86-9.92,0-.09,0-.19.01-.28l15.2-78.19c1.47.83,3.52,1.93,5.99,3.11,4.67,2.24,11.77,5.21,19.09,6.63s14.8,1.28,19.78.92c2.54-.19,4.69-.45,6.27-.67l-15.24,78.42c-3.16.51-15.02,2.16-26.23-.02Z"/>
          <path class="cls-7" d="M72.2,119.97l-14.45,74.36c4.49,2.52,13.67,7.18,23.04,9s19.83.83,24.15.22l14.45-74.32c-1.09.12-2.31.24-3.63.34-7.42.55-14.25.23-20.31-.95s-12.63-3.46-19.57-6.79c-1.36-.65-2.6-1.28-3.68-1.85M69.33,113.76s13.12,8.26,26.88,10.94,28.18-.24,28.18-.24l-15.86,81.61s-.08.55-.24.72-.23.28-.61.39c-2.09.38-15.19,2.51-27.65.09-10.98-2.14-21.47-7.81-25.5-10.16-.71-.42-.79-.85-.91-1.1-.12-.25-.04-1.16-.04-1.16l15.76-81.08Z"/>
        </g>
        <g id="_パス_226" data-name="パス_226">
          <path class="cls-7" d="M80.41,205.29c-10.6-2.06-20.9-7.61-24.86-9.92,0-.09,0-.19.01-.28l11.99-61.67c1.47.83,3.52,1.93,5.99,3.11,4.67,2.24,11.77,5.21,19.09,6.63s14.8,1.28,19.78.92c2.54-.19,4.69-.45,6.27-.67l-12.03,61.9c-3.16.51-15.02,2.16-26.23-.02Z"/>
          <path class="cls-7" d="M68.99,136.49l-11.24,57.84c4.49,2.52,13.67,7.18,23.04,9s19.83.83,24.15.22l11.24-57.8c-1.09.12-2.31.24-3.63.34-7.42.55-14.25.23-20.31-.95s-12.63-3.46-19.57-6.79c-1.36-.65-2.6-1.28-3.68-1.85M66.12,130.27s13.12,8.26,26.88,10.94c13.76,2.68,28.18-.24,28.18-.24l-12.65,65.09s-.08.55-.24.72c-.17.17-.23.28-.61.39-2.09.38-15.19,2.51-27.65.09-10.98-2.14-21.47-7.81-25.5-10.16-.71-.42-.79-.85-.91-1.1-.12-.25-.04-1.16-.04-1.16l12.55-64.56Z"/>
        </g>
        <g id="_楕円形_36" data-name="楕円形_36">
          <ellipse class="cls-8" cx="96.44" cy="119.52" rx="8.42" ry="28.63" transform="translate(-39.29 191.38) rotate(-79)"/>
          <ellipse class="cls-3" cx="96.44" cy="119.52" rx="6.42" ry="26.63" transform="translate(-39.29 191.38) rotate(-79)"/>
        </g>
        <g id="_合体_2" data-name="合体_2">
          <path class="cls-8" d="M96.77,132.99h0c-2.05-.4-3.89-1.4-5.18-2.82l-.87-.95-1.23.39c-1.49.48-3.15.56-4.79.24-1.86-.36-3.51-1.19-4.78-2.41-1.17-1.12-1.91-2.49-2.09-3.88l-.17-1.32-1.28-.35c-2.01-.56-3.74-1.69-4.86-3.2-1.06-1.42-1.47-3.04-1.17-4.57.62-3.19,4.16-5.33,8.23-4.97l1.62.14.47-1.56c.97-3.24,5-5.14,9.18-4.33.92.18,1.79.47,2.6.88l1.13.57,1-.78c1.85-1.45,4.54-2.02,7.2-1.5,2.57.5,4.82,1.97,6.01,3.93l.6.98,1.14-.02c.7-.01,1.41.05,2.12.19,2.12.41,4,1.46,5.29,2.94,1.2,1.39,1.77,3.02,1.59,4.6l-.17,1.53,1.43.56c1.74.68,3.2,1.82,4.12,3.22.88,1.34,1.21,2.81.93,4.22-.36,1.84-1.58,2.99-2.54,3.63-1.43.96-3.28,1.45-5.2,1.37l-1.24-.05-.59,1.09c-.67,1.24-1.88,2.25-3.39,2.87-1.64.66-3.5.82-5.38.46-1.15-.22-2.22-.63-3.19-1.2l-.79-.47-.87.29c-1.52.51-3.21.6-4.89.28Z"/>
          <path class="cls-7" d="M97.15,131.03c1.34.26,2.68.19,3.87-.21l1.74-.58,1.58.94c.77.46,1.63.78,2.55.96,3.18.62,5.74-.7,6.63-2.32l1.19-2.18,2.48.09c2.85.11,5.3-1.35,5.69-3.39.22-1.13-.23-2.12-.64-2.74-.69-1.05-1.82-1.93-3.18-2.45l-2.86-1.12.34-3.05c.26-2.34-2.11-4.74-5.28-5.36-.57-.11-1.14-.16-1.7-.15l-2.29.04-1.19-1.95c-.91-1.49-2.66-2.61-4.69-3.01s-4.18,0-5.58,1.11l-2,1.57-2.27-1.14c-.65-.32-1.35-.56-2.08-.7-1.67-.32-3.33-.13-4.68.55-1.13.57-1.91,1.41-2.2,2.39l-.93,3.12-3.25-.28c-3-.26-5.67,1.22-6.09,3.36-.24,1.25.31,2.32.81,3,.86,1.15,2.21,2.03,3.79,2.47l2.56.71.34,2.63c.28,2.11,2.49,4.04,5.27,4.58,1.31.25,2.62.19,3.79-.19l2.45-.79,1.73,1.91c1,1.1,2.45,1.88,4.08,2.2M96.39,134.95c-2.57-.5-4.76-1.76-6.28-3.43-1.75.56-3.74.7-5.78.3-4.6-.9-7.98-4.24-8.47-7.99-5.02-1.39-8.31-5.73-7.47-10.08.83-4.25,5.33-7.02,10.36-6.58,1.26-4.21,6.22-6.74,11.48-5.72,1.12.22,2.16.58,3.11,1.06,2.23-1.75,5.46-2.54,8.81-1.89s5.9,2.49,7.34,4.85c.83-.01,1.68.06,2.53.22,5.31,1.03,8.99,5.31,8.49,9.73,4.34,1.7,7.06,5.69,6.28,9.69s-4.98,6.8-9.77,6.62c-1.83,3.36-6.25,5.24-10.9,4.33-1.41-.27-2.7-.78-3.83-1.45-1.78.6-3.82.75-5.9.34Z"/>
        </g>
      </g>
      <g id="_ワイン" data-name="ワイン">
        <g id="_合体_1" data-name="合体_1">
          <path class="cls-7" d="M194.14,204.2l-42.73,6.77c-2.18.35-4.23-1.15-4.58-3.33l-15.66-98.87c-.17-1.08.1-2.15.75-3.03l.24-.33.15-.38,11.44-29.2.3-.76-.13-.81-4.12-26.03c-.09-.54.29-1.06.83-1.14l13.1-2.08c.54-.09,1.06.29,1.14.83l4.12,26.03.13.81.52.63,19.91,24.23.26.31.33.23c.89.63,1.48,1.57,1.65,2.65l15.66,98.87c.35,2.18-1.15,4.23-3.32,4.58Z"/>
          <path class="cls-7" d="M193.67,201.24c.54-.09.92-.6.83-1.14l-16.07-99.54-.66-.47-21.46-26.12-4.06-25.66-9.15,1.45,4.06,25.66-12.04,30.72-.49,1.52-.49.65,15.66,98.87c.09.54.6.92,1.14.83l42.73-6.77M194.61,207.17l-42.73,6.77c-3.82.6-7.4-2-8.01-5.82l-15.66-98.87c-.31-1.95.22-3.83,1.31-5.3l11.44-29.2-4.12-26.03c-.35-2.18,1.14-4.23,3.33-4.58l13.1-2.08c2.18-.35,4.23,1.14,4.58,3.33l4.12,26.03,19.91,24.23c1.49,1.05,2.58,2.68,2.88,4.63l15.66,98.87c.6,3.82-2,7.4-5.82,8.01Z"/>
        </g>
        <path id="_パス_223" data-name="パス_223" class="cls-8" d="M134.56,123.22c8.17.75,16.41.56,24.54-.58,8.2-1.47,16.2-3.84,23.87-7.09l10.86,68.58c-7.38,3.24-15.12,5.58-23.06,6.96-8.4,1.14-16.9,1.38-25.35.71l-10.86-68.58Z"/>
        <g id="_長方形_195" data-name="長方形_195">
          <rect class="cls-8" x="138.78" y="42.89" width="21.33" height="34.8" rx="4" ry="4" transform="translate(-7.59 24.12) rotate(-9)"/>
          <rect class="cls-2" x="141.28" y="45.39" width="16.33" height="29.8" rx="1.5" ry="1.5" transform="translate(-7.59 24.12) rotate(-9)"/>
        </g>
      </g>
      <g id="_長方形_197" data-name="長方形_197">
        <rect class="cls-7" x="108.96" y="6.83" width="25" height="240" transform="translate(-54.11 123.03) rotate(-45)"/>
        <rect class="cls-5" x="110.96" y="8.83" width="21" height="236" transform="translate(-54.11 123.03) rotate(-45)"/>
      </g>
      <g id="_楕円形_35" data-name="楕円形_35">
        <circle class="cls-1" cx="125" cy="125" r="125"/>
        <circle class="cls-4" cx="125" cy="125" r="116"/>
      </g>
    </g>
  </g>
</svg>