<?xml version="1.0" encoding="UTF-8"?>
<svg id="_レイヤー_2" data-name="レイヤー_2" xmlns="http://www.w3.org/2000/svg" viewBox="0 0 250 250">
  <defs>
    <style>
      .cls-1, .cls-2, .cls-3, .cls-4 {
        fill: none;
      }

      .cls-5 {
        fill: #e07494;
      }

      .cls-2 {
        stroke-width: 18px;
      }

      .cls-2, .cls-4 {
        stroke: #e07494;
      }

      .cls-6 {
        fill: #fff;
      }

      .cls-3 {
        stroke: #fff;
        stroke-miterlimit: 4;
        stroke-width: 4px;
      }

      .cls-4 {
        stroke-linecap: round;
        stroke-miterlimit: 4;
        stroke-width: 1px;
      }
    </style>
  </defs>
  <g id="_背景" data-name="背景">
    <g>
      <g id="_楕円形_70-2" data-name="楕円形_70-2">
        <circle class="cls-6" cx="125" cy="125" r="125"/>
        <circle class="cls-2" cx="125" cy="125" r="116"/>
      </g>
      <g id="_グループ_193" data-name="グループ_193">
        <path id="_合体_7" data-name="合体_7" class="cls-5" d="M122.24,59.98c.91,10.41-6.79,19.58-17.2,20.49s-19.58-6.79-20.49-17.2c-.91-10.41,6.79-19.58,17.2-20.49s19.58,6.79,20.49,17.2h0ZM152.79,54.53c4.01-.21,7.43,2.87,7.64,6.88,0,0,0,0,0,0l1.4,26.88c.2,3.92-2.73,7.29-6.64,7.63-.63.08-1.27.07-1.9-.02l-19.76-2.78,9.02,33.69c.29,1.07.41,2.17.37,3.28.27.17.53.36.78.55l22.93,17.92c1.64,1.28,2.85,3.04,3.46,5.03.6,1.55.8,3.23.6,4.89l-4.62,37.55c-.64,5.59-5.69,9.6-11.27,8.96s-9.6-5.69-8.96-11.27c0-.06.01-.12.02-.17l3.97-32.26-18.66-14.59c-1.51-1.18-2.66-2.76-3.31-4.56l-6.64,1.78,5.68,21.22c.57,2.11.44,4.36-.37,6.39l-10.4,36.26c-1.58,5.4-7.24,8.49-12.63,6.92-5.36-1.57-8.46-7.16-6.95-12.53l9.93-34.58-9.03-33.72c-.22-.81-.33-1.63-.35-2.47l-8.97-33.51c-1.57-5.87,1.91-11.9,7.78-13.47,0,0,0,0,0,0l22.32-5.98c1.32-.35,2.69-.46,4.04-.31,1.31-.65,2.79-.89,4.25-.69l20.34,2.86-.95-18.13c-.2-3.91,2.73-7.28,6.63-7.63.08,0,.17-.01.25-.02Z"/>
        <g id="_グループ_192" data-name="グループ_192">
          <rect id="_長方形_215" data-name="長方形_215" class="cls-5" x="154.78" y="51.82" width="6.55" height="24.02" rx="2" ry="2" transform="translate(46.22 192.47) rotate(-70.99)"/>
          <circle id="_楕円形_87" data-name="楕円形_87" class="cls-5" cx="142.91" cy="58.71" r="5.79"/>
          <path id="_パス_236" data-name="パス_236" class="cls-4" d="M169.13,67.85c2.09.41,3.9,1.69,4.99,3.52,2.2,3.26,3.82,9.5,3.82,9.5"/>
        </g>
      </g>
      <g id="_長方形_197" data-name="長方形_197">
        <rect class="cls-5" x="108.96" y="6.83" width="25" height="240" transform="translate(-54.11 123.03) rotate(-45)"/>
        <rect class="cls-3" x="110.96" y="8.83" width="21" height="236" transform="translate(-54.11 123.03) rotate(-45)"/>
      </g>
      <g id="_楕円形_35" data-name="楕円形_35">
        <circle class="cls-1" cx="125" cy="125" r="125"/>
        <circle class="cls-2" cx="125" cy="125" r="116"/>
      </g>
    </g>
  </g>
</svg>