<?xml version="1.0" encoding="UTF-8"?>
<svg id="_レイヤー_2" data-name="レイヤー_2" xmlns="http://www.w3.org/2000/svg" viewBox="0 0 250 250">
  <defs>
    <style>
      .cls-1, .cls-2, .cls-3, .cls-4, .cls-5 {
        fill: none;
      }

      .cls-2 {
        stroke-miterlimit: 4;
        stroke-width: 5px;
      }

      .cls-2, .cls-3, .cls-5 {
        stroke: #e07494;
      }

      .cls-6 {
        fill: #e07494;
      }

      .cls-3 {
        stroke-width: 18px;
      }

      .cls-7 {
        fill: #fff;
      }

      .cls-4 {
        stroke: #fff;
        stroke-miterlimit: 4;
        stroke-width: 4px;
      }

      .cls-5 {
        stroke-linecap: round;
        stroke-width: 3px;
      }
    </style>
  </defs>
  <g id="_背景" data-name="背景">
    <g>
      <g id="_楕円形_69-2" data-name="楕円形_69-2">
        <circle class="cls-7" cx="125" cy="125" r="125"/>
        <circle class="cls-3" cx="125" cy="125" r="116"/>
      </g>
      <g id="_不審者" data-name="不審者">
        <g id="_合体_6" data-name="合体_6">
          <path class="cls-7" d="M200.24,178.32l-129.87-.05c-3.34,0-6.48-1.3-8.84-3.67-2.36-2.36-3.66-5.5-3.66-8.85l.03-66.26v-1.09s-.8-.74-.8-.74l-16.32-15.22,17.8-1.03,1.15-.07.7-.92c1.14-1.51,2.64-2.76,4.32-3.61,1.76-.89,3.67-1.35,5.66-1.35l129.87.05c3.34,0,6.48,1.3,8.84,3.67,2.36,2.36,3.66,5.5,3.66,8.84l-.03,77.78c0,3.34-1.3,6.48-3.67,8.84-2.36,2.36-5.5,3.66-8.84,3.66Z"/>
          <path class="cls-6" d="M200.24,175.82c5.52,0,10.01-4.48,10.01-10l.03-77.78c0-5.52-4.48-10.01-10-10.01l-129.87-.05c-1.6,0-3.12.36-4.52,1.08-1.35.68-2.54,1.68-3.46,2.89l-1.39,1.84-14.27.82,13.63,12.71-.03,68.43c0,5.52,4.48,10.01,10,10.01l129.87.05M200.24,180.82l-129.87-.05c-8.29,0-15-6.73-15-15.01l.03-66.26-20.6-19.21,23.64-1.36c2.74-3.62,7.08-5.95,11.97-5.95l129.87.05c8.29,0,15,6.72,15,15.01l-.03,77.78c0,8.29-6.73,15.01-15.01,15Z"/>
        </g>
        <g id="_グループ_190" data-name="グループ_190">
          <g id="_楕円形_83" data-name="楕円形_83">
            <circle class="cls-6" cx="162.48" cy="117.86" r="33.52"/>
            <circle class="cls-2" cx="162.48" cy="117.86" r="31.02"/>
          </g>
          <path id="_前面オブジェクトで型抜き_12" data-name="前面オブジェクトで型抜き_12" class="cls-7" d="M153.35,115.28c-1.16.45-2.39.67-3.63.67-1.2,0-2.38-.22-3.5-.65-2.27-.85-4.15-2.51-5.29-4.66,3.34-.34,6.62-1.12,9.75-2.33,3.13-1.2,6.09-2.81,8.8-4.8.6,2.35.31,4.85-.81,7-.55,1.06-1.28,2.02-2.17,2.83-.92.83-1.99,1.49-3.15,1.93Z"/>
          <path id="_前面オブジェクトで型抜き_13" data-name="前面オブジェクトで型抜き_13" class="cls-7" d="M168.99,139.59c-6.76.72-12.82-4.18-13.54-10.94,0,0,0-.01,0-.02-.32-2.98.47-5.98,2.21-8.43.75,7.01,7.03,12.09,14.05,11.36,3.22-.33,6.19-1.88,8.31-4.33.05,6.35-4.72,11.7-11.03,12.36Z"/>
          <path id="_前面オブジェクトで型抜き_14" data-name="前面オブジェクトで型抜き_14" class="cls-7" d="M178.95,112.28c4.95,1.06,9.91-1.74,11.55-6.52-3.35.19-6.71-.07-9.99-.78-3.28-.7-6.46-1.83-9.44-3.36-.45,5.04,2.94,9.62,7.89,10.66Z"/>
        </g>
        <g id="_グループ_191" data-name="グループ_191">
          <line id="_線_53" data-name="線_53" class="cls-5" x1="71.5" y1="140.5" x2="111.5" y2="140.5"/>
          <line id="_線_53-2" data-name="線_53-2" class="cls-5" x1="71.5" y1="152.5" x2="111.5" y2="152.5"/>
          <line id="_線_53-3" data-name="線_53-3" class="cls-5" x1="71.5" y1="164.5" x2="111.5" y2="164.5"/>
        </g>
      </g>
      <g id="_長方形_197" data-name="長方形_197">
        <rect class="cls-6" x="108.96" y="6.83" width="25" height="240" transform="translate(-54.11 123.03) rotate(-45)"/>
        <rect class="cls-4" x="110.96" y="8.83" width="21" height="236" transform="translate(-54.11 123.03) rotate(-45)"/>
      </g>
      <g id="_楕円形_35" data-name="楕円形_35">
        <circle class="cls-1" cx="125" cy="125" r="125"/>
        <circle class="cls-3" cx="125" cy="125" r="116"/>
      </g>
    </g>
  </g>
</svg>