<?xml version="1.0" encoding="UTF-8"?>
<svg id="_レイヤー_2" data-name="レイヤー_2" xmlns="http://www.w3.org/2000/svg" viewBox="0 0 250 250">
  <defs>
    <style>
      .cls-1, .cls-2, .cls-3 {
        fill: none;
      }

      .cls-4 {
        fill: #e07494;
      }

      .cls-2 {
        stroke: #e07494;
        stroke-width: 18px;
      }

      .cls-5 {
        fill: #fff;
      }

      .cls-3 {
        stroke: #fff;
        stroke-miterlimit: 4;
        stroke-width: 4px;
      }
    </style>
  </defs>
  <g id="_背景" data-name="背景">
    <g>
      <g id="_楕円形_69-2" data-name="楕円形_69-2">
        <circle class="cls-5" cx="125" cy="125" r="125"/>
        <circle class="cls-2" cx="125" cy="125" r="116"/>
      </g>
      <g id="_肉球" data-name="肉球">
        <ellipse id="_楕円形_71" data-name="楕円形_71" class="cls-4" cx="70.99" cy="108.13" rx="16" ry="24.99" transform="translate(-9.14 6.59) rotate(-4.99)"/>
        <ellipse id="_楕円形_72" data-name="楕円形_72" class="cls-4" cx="179" cy="108.14" rx="24.99" ry="16" transform="translate(55.7 277.05) rotate(-85.01)"/>
        <ellipse id="_楕円形_73" data-name="楕円形_73" class="cls-4" cx="104.79" cy="78.23" rx="16" ry="25"/>
        <ellipse id="_楕円形_74" data-name="楕円形_74" class="cls-4" cx="144.79" cy="78.23" rx="16" ry="25"/>
        <path id="_パス_233" data-name="パス_233" class="cls-4" d="M105.92,117.67c11.83-12.66,29.28-9.51,38.01,0,3.49,4.61,7.02,8.83,10.04,12.31,10.44,12.48,16.14,15.13,16.14,15.13,19.19,13.66,10.54,50.93-14.98,51.6-16.32-2.74-14.92-4.96-29.79-4.96s-14.93,2.07-29.69,4.96c-25.95,1.75-35.36-34.29-17.66-49.97,0,0,11.69-9.68,17.44-16.76s10.49-12.31,10.49-12.31Z"/>
      </g>
      <g id="_長方形_197" data-name="長方形_197">
        <rect class="cls-4" x="108.96" y="6.83" width="25" height="240" transform="translate(-54.11 123.03) rotate(-45)"/>
        <rect class="cls-3" x="110.96" y="8.83" width="21" height="236" transform="translate(-54.11 123.03) rotate(-45)"/>
      </g>
      <g id="_楕円形_35" data-name="楕円形_35">
        <circle class="cls-1" cx="125" cy="125" r="125"/>
        <circle class="cls-2" cx="125" cy="125" r="116"/>
      </g>
    </g>
  </g>
</svg>