<?xml version="1.0" encoding="UTF-8"?>
<svg id="_レイヤー_2" data-name="レイヤー_2" xmlns="http://www.w3.org/2000/svg" viewBox="0 0 250 250">
  <defs>
    <style>
      .cls-1, .cls-2, .cls-3, .cls-4 {
        fill: none;
      }

      .cls-2 {
        stroke-miterlimit: 4;
        stroke-width: 4px;
      }

      .cls-2, .cls-3 {
        stroke: #e07494;
      }

      .cls-5 {
        fill: #e07494;
      }

      .cls-3 {
        stroke-width: 18px;
      }

      .cls-6 {
        fill: #fff;
      }

      .cls-4 {
        stroke: #fff;
        stroke-miterlimit: 4;
        stroke-width: 4px;
      }
    </style>
  </defs>
  <g id="_背景" data-name="背景">
    <g>
      <g id="_楕円形_69-2" data-name="楕円形_69-2">
        <circle class="cls-6" cx="125" cy="125" r="125"/>
        <circle class="cls-3" cx="125" cy="125" r="116"/>
      </g>
      <g id="_タバコ" data-name="タバコ">
        <g id="_グループ_187" data-name="グループ_187">
          <g id="_長方形_198" data-name="長方形_198">
            <rect class="cls-6" x="49.16" y="153.12" width="128.35" height="20.06" transform="translate(-58.38 63.26) rotate(-25.03)"/>
            <rect class="cls-2" x="51.16" y="155.12" width="124.35" height="16.05" transform="translate(-58.38 63.26) rotate(-25.03)"/>
          </g>
          <g id="_長方形_199" data-name="長方形_199">
            <rect class="cls-5" x="53.16" y="171.07" width="43.32" height="20.06" transform="translate(-69.59 48.65) rotate(-25.03)"/>
            <rect class="cls-2" x="55.16" y="173.07" width="39.32" height="16.05" transform="translate(-69.59 48.65) rotate(-25.03)"/>
          </g>
        </g>
        <g id="_グループ_188" data-name="グループ_188">
          <path id="_合体_3" data-name="合体_3" class="cls-5" d="M185.67,126.11c3.54-2.36,5.77-6.25,6.02-10.5.07-2.22-.44-4.42-1.46-6.4-1.09-2.1-2.59-3.95-4.41-5.46-2-1.67-4.25-3.01-6.68-3.95-.58-.23-1.16-.44-1.75-.62-1.2-.72-2.17-1.75-2.82-2.99-.51-.91-.87-1.9-1.04-2.93-.04-6.88,2.86-13.09,7.66-15.83-3.62-.57-7.33.21-10.41,2.2-1.7,1.1-3.17,2.53-4.32,4.19-1.17,1.69-2.01,3.59-2.47,5.6-.49,2.1-.56,4.28-.22,6.42.61,3.98,2.65,7.61,5.75,10.19,1.57,1.31,3.38,2.3,5.33,2.91,1.07.72,1.95,1.7,2.55,2.84.03.06.07.12.1.19.46,1.72.67,3.5.61,5.28-.16,5.06-2.51,9.81-6.44,13h0c1.47,0,2.95-.1,4.4-.33,3.46-.5,6.75-1.81,9.6-3.81Z"/>
          <path id="_合体_4" data-name="合体_4" class="cls-5" d="M193.66,91.19c3.54-2.36,5.77-6.25,6.02-10.5.07-2.22-.44-4.42-1.46-6.4-1.09-2.1-2.59-3.95-4.41-5.46-2-1.67-4.25-3.01-6.68-3.95-.58-.23-1.16-.44-1.75-.62-1.2-.72-2.17-1.75-2.82-2.99-.51-.91-.87-1.9-1.04-2.93-.04-6.88,2.86-13.09,7.66-15.83-3.62-.57-7.33.21-10.41,2.2-1.7,1.1-3.17,2.53-4.32,4.19-1.17,1.69-2.01,3.59-2.47,5.6-.49,2.1-.56,4.28-.22,6.42.61,3.98,2.65,7.61,5.75,10.19,1.57,1.31,3.38,2.3,5.33,2.91,1.07.72,1.95,1.7,2.55,2.84.03.06.07.12.1.19.46,1.72.67,3.5.61,5.28-.16,5.06-2.51,9.81-6.44,13h0c1.47,0,2.95-.1,4.4-.33,3.46-.5,6.75-1.81,9.6-3.81Z"/>
        </g>
      </g>
      <g id="_長方形_197" data-name="長方形_197">
        <rect class="cls-5" x="108.96" y="6.83" width="25" height="240" transform="translate(-54.11 123.03) rotate(-45)"/>
        <rect class="cls-4" x="110.96" y="8.83" width="21" height="236" transform="translate(-54.11 123.03) rotate(-45)"/>
      </g>
      <g id="_楕円形_35" data-name="楕円形_35">
        <circle class="cls-1" cx="125" cy="125" r="125"/>
        <circle class="cls-3" cx="125" cy="125" r="116"/>
      </g>
    </g>
  </g>
</svg>